<?xml version="1.0" standalone="no"?>
<svg xmlns:xlink="http://www.w3.org/1999/xlink" id="wave" style="transform:rotate(180deg); transition: 0.3s" viewBox="0 0 1440 490" version="1.1" xmlns="http://www.w3.org/2000/svg"><defs><linearGradient id="sw-gradient-0" x1="0" x2="0" y1="1" y2="0"><stop stop-color="rgba(67.278, 94.804, 193.897, 1)" offset="0%"/><stop stop-color="rgba(37.667, 81.5, 212.111, 1)" offset="100%"/></linearGradient></defs><path style="transform:translate(0, 0px); opacity:1" fill="url(#sw-gradient-0)" d="M0,147L80,179.7C160,212,320,278,480,277.7C640,278,800,212,960,220.5C1120,229,1280,310,1440,334.8C1600,359,1760,327,1920,277.7C2080,229,2240,163,2400,138.8C2560,114,2720,131,2880,122.5C3040,114,3200,82,3360,65.3C3520,49,3680,49,3840,81.7C4000,114,4160,180,4320,220.5C4480,261,4640,278,4800,253.2C4960,229,5120,163,5280,155.2C5440,147,5600,196,5760,204.2C5920,212,6080,180,6240,212.3C6400,245,6560,343,6720,343C6880,343,7040,245,7200,220.5C7360,196,7520,245,7680,277.7C7840,310,8000,327,8160,294C8320,261,8480,180,8640,130.7C8800,82,8960,65,9120,49C9280,33,9440,16,9600,24.5C9760,33,9920,65,10080,122.5C10240,180,10400,261,10560,261.3C10720,261,10880,180,11040,187.8C11200,196,11360,294,11440,343L11520,392L11520,490L11440,490C11360,490,11200,490,11040,490C10880,490,10720,490,10560,490C10400,490,10240,490,10080,490C9920,490,9760,490,9600,490C9440,490,9280,490,9120,490C8960,490,8800,490,8640,490C8480,490,8320,490,8160,490C8000,490,7840,490,7680,490C7520,490,7360,490,7200,490C7040,490,6880,490,6720,490C6560,490,6400,490,6240,490C6080,490,5920,490,5760,490C5600,490,5440,490,5280,490C5120,490,4960,490,4800,490C4640,490,4480,490,4320,490C4160,490,4000,490,3840,490C3680,490,3520,490,3360,490C3200,490,3040,490,2880,490C2720,490,2560,490,2400,490C2240,490,2080,490,1920,490C1760,490,1600,490,1440,490C1280,490,1120,490,960,490C800,490,640,490,480,490C320,490,160,490,80,490L0,490Z"/><defs><linearGradient id="sw-gradient-1" x1="0" x2="0" y1="1" y2="0"><stop stop-color="rgba(150.659, 188.574, 198.45, 1)" offset="0%"/><stop stop-color="rgba(22.246, 211.292, 225.772, 1)" offset="100%"/></linearGradient></defs><path style="transform:translate(0, 50px); opacity:0.9" fill="url(#sw-gradient-1)" d="M0,245L80,204.2C160,163,320,82,480,65.3C640,49,800,98,960,106.2C1120,114,1280,82,1440,57.2C1600,33,1760,16,1920,24.5C2080,33,2240,65,2400,89.8C2560,114,2720,131,2880,130.7C3040,131,3200,114,3360,89.8C3520,65,3680,33,3840,89.8C4000,147,4160,294,4320,334.8C4480,376,4640,310,4800,302.2C4960,294,5120,343,5280,367.5C5440,392,5600,392,5760,359.3C5920,327,6080,261,6240,204.2C6400,147,6560,98,6720,130.7C6880,163,7040,278,7200,277.7C7360,278,7520,163,7680,106.2C7840,49,8000,49,8160,106.2C8320,163,8480,278,8640,269.5C8800,261,8960,131,9120,73.5C9280,16,9440,33,9600,106.2C9760,180,9920,310,10080,351.2C10240,392,10400,343,10560,285.8C10720,229,10880,163,11040,179.7C11200,196,11360,294,11440,343L11520,392L11520,490L11440,490C11360,490,11200,490,11040,490C10880,490,10720,490,10560,490C10400,490,10240,490,10080,490C9920,490,9760,490,9600,490C9440,490,9280,490,9120,490C8960,490,8800,490,8640,490C8480,490,8320,490,8160,490C8000,490,7840,490,7680,490C7520,490,7360,490,7200,490C7040,490,6880,490,6720,490C6560,490,6400,490,6240,490C6080,490,5920,490,5760,490C5600,490,5440,490,5280,490C5120,490,4960,490,4800,490C4640,490,4480,490,4320,490C4160,490,4000,490,3840,490C3680,490,3520,490,3360,490C3200,490,3040,490,2880,490C2720,490,2560,490,2400,490C2240,490,2080,490,1920,490C1760,490,1600,490,1440,490C1280,490,1120,490,960,490C800,490,640,490,480,490C320,490,160,490,80,490L0,490Z"/><defs><linearGradient id="sw-gradient-2" x1="0" x2="0" y1="1" y2="0"><stop stop-color="rgba(139.066, 37, 230.325, 1)" offset="0%"/><stop stop-color="rgba(151.787, 37.644, 218.941, 1)" offset="100%"/></linearGradient></defs><path style="transform:translate(0, 100px); opacity:0.8" fill="url(#sw-gradient-2)" d="M0,294L80,253.2C160,212,320,131,480,130.7C640,131,800,212,960,236.8C1120,261,1280,229,1440,179.7C1600,131,1760,65,1920,40.8C2080,16,2240,33,2400,89.8C2560,147,2720,245,2880,269.5C3040,294,3200,245,3360,220.5C3520,196,3680,196,3840,212.3C4000,229,4160,261,4320,269.5C4480,278,4640,261,4800,220.5C4960,180,5120,114,5280,138.8C5440,163,5600,278,5760,334.8C5920,392,6080,392,6240,392C6400,392,6560,392,6720,392C6880,392,7040,392,7200,326.7C7360,261,7520,131,7680,73.5C7840,16,8000,33,8160,65.3C8320,98,8480,147,8640,196C8800,245,8960,294,9120,310.3C9280,327,9440,310,9600,253.2C9760,196,9920,98,10080,65.3C10240,33,10400,65,10560,122.5C10720,180,10880,261,11040,261.3C11200,261,11360,180,11440,138.8L11520,98L11520,490L11440,490C11360,490,11200,490,11040,490C10880,490,10720,490,10560,490C10400,490,10240,490,10080,490C9920,490,9760,490,9600,490C9440,490,9280,490,9120,490C8960,490,8800,490,8640,490C8480,490,8320,490,8160,490C8000,490,7840,490,7680,490C7520,490,7360,490,7200,490C7040,490,6880,490,6720,490C6560,490,6400,490,6240,490C6080,490,5920,490,5760,490C5600,490,5440,490,5280,490C5120,490,4960,490,4800,490C4640,490,4480,490,4320,490C4160,490,4000,490,3840,490C3680,490,3520,490,3360,490C3200,490,3040,490,2880,490C2720,490,2560,490,2400,490C2240,490,2080,490,1920,490C1760,490,1600,490,1440,490C1280,490,1120,490,960,490C800,490,640,490,480,490C320,490,160,490,80,490L0,490Z"/></svg>